<?xml version="1.0" standalone="no"?>
<!DOCTYPE svg PUBLIC "-//W3C//DTD SVG 20010904//EN"
 "http://www.w3.org/TR/2001/REC-SVG-20010904/DTD/svg10.dtd">
<svg version="1.0" xmlns="http://www.w3.org/2000/svg"
 width="192.000000pt" height="192.000000pt" viewBox="0 0 192.000000 192.000000"
 preserveAspectRatio="xMidYMid meet">
<metadata>
Created by potrace 1.14, written by Peter Selinger 2001-2017
</metadata>
<g transform="translate(0.000000,192.000000) scale(0.100000,-0.100000)"
fill="#000000" stroke="none">
<path d="M427 1710 c-127 -40 -215 -146 -231 -281 -7 -56 -9 -837 -2 -924 2
-27 9 -63 16 -80 6 -16 12 -32 12 -35 5 -25 12 -40 19 -40 5 0 9 -6 9 -14 0
-8 9 -22 21 -30 13 -9 18 -19 14 -27 -5 -7 -4 -10 2 -6 6 4 23 -5 39 -20 16
-15 31 -26 34 -26 3 1 4 -4 2 -10 -2 -6 4 -5 12 3 11 8 16 9 16 1 0 -6 9 -11
21 -11 11 0 18 -4 15 -9 -3 -4 7 -6 22 -4 17 3 23 1 15 -4 -8 -6 9 -8 44 -6
34 1 63 -2 72 -10 12 -9 13 -9 7 0 -9 16 45 14 56 -2 5 -6 8 -6 8 3 0 16 32
16 49 -1 9 -7 11 -8 7 0 -4 7 6 11 29 11 24 0 33 -4 28 -11 -5 -9 -2 -8 8 0
16 13 36 12 58 -1 10 -6 12 -5 7 3 -9 13 50 11 73 -4 10 -6 12 -4 6 4 -9 16
42 12 64 -4 11 -7 13 -7 8 2 -8 13 130 13 152 -1 9 -6 12 -5 8 1 -4 7 10 11
38 11 29 1 45 -3 45 -11 0 -8 3 -8 8 -2 9 13 42 13 61 1 10 -6 12 -5 7 2 -4 7
-1 12 8 12 9 0 16 -6 16 -12 0 -9 4 -8 10 2 8 13 13 13 31 2 11 -8 18 -9 14
-3 -4 7 5 11 22 12 59 2 95 10 106 24 4 6 11 4 17 -5 8 -13 10 -12 10 4 0 12
5 16 16 12 8 -3 12 -2 9 4 -6 10 7 14 35 11 13 -2 13 -1 0 8 -12 8 -11 11 5
17 20 8 51 34 40 34 -3 0 6 12 20 27 14 15 26 31 26 35 2 13 5 22 17 51 7 15
14 47 17 70 6 46 8 907 2 947 -15 103 -74 196 -158 247 -78 49 -111 52 -614
52 -427 -1 -475 -2 -528 -19z"/>
</g>
</svg>
